{"title":"Once.Upon.a.Time.S03.Special-Wicked.is.Coming.HDTV.x264-BAJSKORV","uid":9783581,"size":316264833,"categoryP":"video","categoryS":"tv_shows","magnet":"?xt=urn:btih:dbf23122a6f326a6eb1fab35b52cd071568f27b4&amp;dn=Once.Upon.a.Time.S03.Special-Wicked.is.Coming.HDTV.x264-BAJSKORV&amp;tr=udp%3A%2F%2Ftracker.openbittorrent.com%3A80&amp;tr=udp%3A%2F%2Fopen.demonii.com%3A1337&amp;tr=udp%3A%2F%2Ftracker.coppersurfer.tk%3A6969&amp;tr=udp%3A%2F%2Fexodus.desync.com%3A6969","seeders":3,"leechers":1,"uploader":".SceNe.","files":1,"time":1395134278,"description":"General\nComplete name : once.upon.a.time.s03.special-wicked.is.coming.hdtv.x264-bajskorv.mp4\nFormat : MPEG-4\nFormat profile : Base Media\nCodec ID : isom\nFile size : 302 MiB\nDuration : 42mn 33s\nOverall bit rate mode : Variable\nOverall bit rate : 991 Kbps\nEncoded date : UTC 2014-03-08 19:09:17\nTagged date : UTC 2014-03-08 19:09:17\n\nVideo\nID : 1\nFormat : AVC\nFormat/Info : Advanced Video Codec\nFormat profile : &lt;a class=&quot;__cf_email__&quot; href=&quot;/cdn-cgi/l/email-protection&quot; data-cfemail=&quot;8ec6e7e9e6cec2bda0bf&quot;&gt;[email&amp;#160;protected]&lt;/a&gt;&lt;script cf-hash='f9e31' type=&quot;text/javascript&quot;&gt;\n/* &lt;![CDATA[ */!function(){try{var t=&quot;currentScript&quot;in document?document.currentScript:function(){for(var t=document.getElementsByTagName(&quot;script&quot;),e=t.length;e--;)if(t[e].getAttribute(&quot;cf-hash&quot;))return t[e]}();if(t&amp;&amp;t.previousSibling){var e,r,n,i,c=t.previousSibling,a=c.getAttribute(&quot;data-cfemail&quot;);if(a){for(e=&quot;&quot;,r=parseInt(a.substr(0,2),16),n=2;a.length-n;n+=2)i=parseInt(a.substr(n,2),16)^r,e+=String.fromCharCode(i);e=document.createTextNode(e),c.parentNode.replaceChild(e,c)}}}catch(u){}}();/* ]]&gt; */&lt;/script&gt;\nFormat settings, CABAC : Yes\nFormat settings, ReFrames : 5 frames\nCodec ID : avc1\nCodec ID/Info : Advanced Video Coding\nDuration : 42mn 33s\nBit rate : 860 Kbps\nMaximum bit rate : 5 079 Kbps\nWidth : 720 pixels\nHeight : 404 pixels\nDisplay aspect ratio : 16:9\nFrame rate mode : Constant\nFrame rate : 23.976 fps\nColor space : YUV\nChroma subsampling : 4:2:0\nBit depth : 8 bits\nScan type : Progressive\nBits/(Pixel*Frame) : 0.123\nStream size : 262 MiB (87%)\nWriting library : x264 core 142 r2389 956c8d8\nEncoding settings : cabac=1 / ref=5 / deblock=1:1:1 / analyse=0x3:0x133 / me=umh / subme=9 / psy=1 / psy_rd=1.00:0.00 / mixed_ref=1 / me_range=16 / chroma_me=1 / trellis=2 / 8x8dct=1 / cqm=0 / deadzone=21,11 / fast_pskip=0 / chroma_qp_offset=-2 / threads=16 / lookahead_threads=1 / sliced_threads=0 / nr=0 / decimate=1 / interlaced=0 / bluray_compat=0 / constrained_intra=0 / bframes=3 / b_pyramid=2 / b_adapt=2 / b_bias=0 / direct=3 / weightb=1 / open_gop=0 / weightp=2 / keyint=250 / keyint_min=23 / scenecut=40 / intra_refresh=0 / rc_lookahead=60 / rc=crf / mbtree=1 / crf=19.0 / qcomp=0.60 / qpmin=0 / qpmax=69 / qpstep=4 / ip_ratio=1.40 / aq=1:1.00\nEncoded date : UTC 2014-03-08 18:53:20\nTagged date : UTC 2014-03-08 19:09:18\nMatrix coefficients : BT.709-5, BT.1361, IEC 61966-2-4 709, SMPTE RP177\n\nAudio\nID : 2\nFormat : AAC\nFormat/Info : Advanced Audio Codec\nFormat profile : LC\nCodec ID : 40\nDuration : 42mn 33s\nBit rate mode : Variable\nBit rate : 127 Kbps\nMaximum bit rate : 151 Kbps\nChannel(s) : 2 channels\nChannel positions : Front: L R\nSampling rate : 48.0 KHz\nCompression mode : Lossy\nDelay relative to video : -3s 337ms\nStream size : 38.6 MiB (13%)\nEncoded date : UTC 2014-03-08 19:09:18\nTagged date : UTC 2014-03-08 19:09:18","torrent":{"xt":"urn:btih:dbf23122a6f326a6eb1fab35b52cd071568f27b4","amp;dn":"Once.Upon.a.Time.S03.Special-Wicked.is.Coming.HDTV.x264-BAJSKORV","amp;tr":["udp%3A%2F%2Ftracker.openbittorrent.com%3A80","udp%3A%2F%2Fopen.demonii.com%3A1337","udp%3A%2F%2Ftracker.coppersurfer.tk%3A6969","udp%3A%2F%2Fexodus.desync.com%3A6969"],"infoHash":"dbf23122a6f326a6eb1fab35b52cd071568f27b4","infoHashBuffer":{"type":"Buffer","data":[219,242,49,34,166,243,38,166,235,31,171,53,181,44,208,113,86,143,39,180]},"announce":[],"urlList":[]}}